%TF.GenerationSoftware,KiCad,Pcbnew,(6.0.9)*%
%TF.CreationDate,2022-11-24T16:49:14+01:00*%
%TF.ProjectId,LDAD ATOM PRO,4c444144-2041-4544-9f4d-2050524f2e6b,5.3*%
%TF.SameCoordinates,Original*%
%TF.FileFunction,Drillmap*%
%TF.FilePolarity,Positive*%
%FSLAX45Y45*%
G04 Gerber Fmt 4.5, Leading zero omitted, Abs format (unit mm)*
G04 Created by KiCad (PCBNEW (6.0.9)) date 2022-11-24 16:49:14*
%MOMM*%
%LPD*%
G01*
G04 APERTURE LIST*
%ADD10C,0.100000*%
%ADD11C,0.200000*%
%ADD12C,0.070000*%
G04 APERTURE END LIST*
D10*
X11911342Y-11246793D02*
X15905000Y-11247000D01*
X16179179Y-8528000D02*
G75*
G03*
X15891000Y-8250000I-278189J-10D01*
G01*
X15905000Y-11247000D02*
G75*
G03*
X16183000Y-10958820I0J278180D01*
G01*
X11898387Y-8248955D02*
X15891000Y-8250000D01*
X16183000Y-10958820D02*
X16179180Y-8528000D01*
X11623168Y-10968793D02*
G75*
G03*
X11911342Y-11246793I278182J3D01*
G01*
X11623162Y-10968793D02*
X11620387Y-8537135D01*
X11898387Y-8248956D02*
G75*
G03*
X11620387Y-8537135I-27J-278154D01*
G01*
D11*
D12*
X11926550Y-8351000D02*
X11996550Y-8421000D01*
X11996550Y-8351000D02*
X11926550Y-8421000D01*
X11926550Y-8478000D02*
X11996550Y-8548000D01*
X11996550Y-8478000D02*
X11926550Y-8548000D01*
X11926550Y-8605000D02*
X11996550Y-8675000D01*
X11996550Y-8605000D02*
X11926550Y-8675000D01*
X11926550Y-8732000D02*
X11996550Y-8802000D01*
X11996550Y-8732000D02*
X11926550Y-8802000D01*
X11926550Y-8859000D02*
X11996550Y-8929000D01*
X11996550Y-8859000D02*
X11926550Y-8929000D01*
D11*
X11872825Y-11562476D02*
X11872825Y-11362476D01*
X11920444Y-11362476D01*
X11949016Y-11372000D01*
X11968063Y-11391048D01*
X11977587Y-11410095D01*
X11987111Y-11448190D01*
X11987111Y-11476762D01*
X11977587Y-11514857D01*
X11968063Y-11533905D01*
X11949016Y-11552952D01*
X11920444Y-11562476D01*
X11872825Y-11562476D01*
X12072825Y-11562476D02*
X12072825Y-11429143D01*
X12072825Y-11467238D02*
X12082349Y-11448190D01*
X12091873Y-11438667D01*
X12110920Y-11429143D01*
X12129968Y-11429143D01*
X12196635Y-11562476D02*
X12196635Y-11429143D01*
X12196635Y-11362476D02*
X12187111Y-11372000D01*
X12196635Y-11381524D01*
X12206158Y-11372000D01*
X12196635Y-11362476D01*
X12196635Y-11381524D01*
X12320444Y-11562476D02*
X12301397Y-11552952D01*
X12291873Y-11533905D01*
X12291873Y-11362476D01*
X12425206Y-11562476D02*
X12406158Y-11552952D01*
X12396635Y-11533905D01*
X12396635Y-11362476D01*
X12653778Y-11562476D02*
X12653778Y-11362476D01*
X12720444Y-11505333D01*
X12787111Y-11362476D01*
X12787111Y-11562476D01*
X12968063Y-11562476D02*
X12968063Y-11457714D01*
X12958539Y-11438667D01*
X12939492Y-11429143D01*
X12901397Y-11429143D01*
X12882349Y-11438667D01*
X12968063Y-11552952D02*
X12949016Y-11562476D01*
X12901397Y-11562476D01*
X12882349Y-11552952D01*
X12872825Y-11533905D01*
X12872825Y-11514857D01*
X12882349Y-11495809D01*
X12901397Y-11486286D01*
X12949016Y-11486286D01*
X12968063Y-11476762D01*
X13063301Y-11429143D02*
X13063301Y-11629143D01*
X13063301Y-11438667D02*
X13082349Y-11429143D01*
X13120444Y-11429143D01*
X13139492Y-11438667D01*
X13149016Y-11448190D01*
X13158539Y-11467238D01*
X13158539Y-11524381D01*
X13149016Y-11543428D01*
X13139492Y-11552952D01*
X13120444Y-11562476D01*
X13082349Y-11562476D01*
X13063301Y-11552952D01*
X13244254Y-11543428D02*
X13253778Y-11552952D01*
X13244254Y-11562476D01*
X13234730Y-11552952D01*
X13244254Y-11543428D01*
X13244254Y-11562476D01*
X13244254Y-11438667D02*
X13253778Y-11448190D01*
X13244254Y-11457714D01*
X13234730Y-11448190D01*
X13244254Y-11438667D01*
X13244254Y-11457714D01*
D12*
X11545206Y-11857000D02*
X11615206Y-11927000D01*
X11615206Y-11857000D02*
X11545206Y-11927000D01*
D11*
X11910920Y-11782476D02*
X11929968Y-11782476D01*
X11949016Y-11792000D01*
X11958539Y-11801524D01*
X11968063Y-11820571D01*
X11977587Y-11858667D01*
X11977587Y-11906286D01*
X11968063Y-11944381D01*
X11958539Y-11963428D01*
X11949016Y-11972952D01*
X11929968Y-11982476D01*
X11910920Y-11982476D01*
X11891873Y-11972952D01*
X11882349Y-11963428D01*
X11872825Y-11944381D01*
X11863301Y-11906286D01*
X11863301Y-11858667D01*
X11872825Y-11820571D01*
X11882349Y-11801524D01*
X11891873Y-11792000D01*
X11910920Y-11782476D01*
X12063301Y-11963428D02*
X12072825Y-11972952D01*
X12063301Y-11982476D01*
X12053778Y-11972952D01*
X12063301Y-11963428D01*
X12063301Y-11982476D01*
X12139492Y-11782476D02*
X12272825Y-11782476D01*
X12187111Y-11982476D01*
X12387111Y-11782476D02*
X12406158Y-11782476D01*
X12425206Y-11792000D01*
X12434730Y-11801524D01*
X12444254Y-11820571D01*
X12453778Y-11858667D01*
X12453778Y-11906286D01*
X12444254Y-11944381D01*
X12434730Y-11963428D01*
X12425206Y-11972952D01*
X12406158Y-11982476D01*
X12387111Y-11982476D01*
X12368063Y-11972952D01*
X12358539Y-11963428D01*
X12349016Y-11944381D01*
X12339492Y-11906286D01*
X12339492Y-11858667D01*
X12349016Y-11820571D01*
X12358539Y-11801524D01*
X12368063Y-11792000D01*
X12387111Y-11782476D01*
X12577587Y-11782476D02*
X12596635Y-11782476D01*
X12615682Y-11792000D01*
X12625206Y-11801524D01*
X12634730Y-11820571D01*
X12644254Y-11858667D01*
X12644254Y-11906286D01*
X12634730Y-11944381D01*
X12625206Y-11963428D01*
X12615682Y-11972952D01*
X12596635Y-11982476D01*
X12577587Y-11982476D01*
X12558539Y-11972952D01*
X12549016Y-11963428D01*
X12539492Y-11944381D01*
X12529968Y-11906286D01*
X12529968Y-11858667D01*
X12539492Y-11820571D01*
X12549016Y-11801524D01*
X12558539Y-11792000D01*
X12577587Y-11782476D01*
X12729968Y-11982476D02*
X12729968Y-11849143D01*
X12729968Y-11868190D02*
X12739492Y-11858667D01*
X12758539Y-11849143D01*
X12787111Y-11849143D01*
X12806158Y-11858667D01*
X12815682Y-11877714D01*
X12815682Y-11982476D01*
X12815682Y-11877714D02*
X12825206Y-11858667D01*
X12844254Y-11849143D01*
X12872825Y-11849143D01*
X12891873Y-11858667D01*
X12901397Y-11877714D01*
X12901397Y-11982476D01*
X12996635Y-11982476D02*
X12996635Y-11849143D01*
X12996635Y-11868190D02*
X13006158Y-11858667D01*
X13025206Y-11849143D01*
X13053778Y-11849143D01*
X13072825Y-11858667D01*
X13082349Y-11877714D01*
X13082349Y-11982476D01*
X13082349Y-11877714D02*
X13091873Y-11858667D01*
X13110920Y-11849143D01*
X13139492Y-11849143D01*
X13158539Y-11858667D01*
X13168063Y-11877714D01*
X13168063Y-11982476D01*
X13558539Y-11772952D02*
X13387111Y-12030095D01*
X13815682Y-11782476D02*
X13834730Y-11782476D01*
X13853778Y-11792000D01*
X13863301Y-11801524D01*
X13872825Y-11820571D01*
X13882349Y-11858667D01*
X13882349Y-11906286D01*
X13872825Y-11944381D01*
X13863301Y-11963428D01*
X13853778Y-11972952D01*
X13834730Y-11982476D01*
X13815682Y-11982476D01*
X13796635Y-11972952D01*
X13787111Y-11963428D01*
X13777587Y-11944381D01*
X13768063Y-11906286D01*
X13768063Y-11858667D01*
X13777587Y-11820571D01*
X13787111Y-11801524D01*
X13796635Y-11792000D01*
X13815682Y-11782476D01*
X13968063Y-11963428D02*
X13977587Y-11972952D01*
X13968063Y-11982476D01*
X13958539Y-11972952D01*
X13968063Y-11963428D01*
X13968063Y-11982476D01*
X14101397Y-11782476D02*
X14120444Y-11782476D01*
X14139492Y-11792000D01*
X14149016Y-11801524D01*
X14158539Y-11820571D01*
X14168063Y-11858667D01*
X14168063Y-11906286D01*
X14158539Y-11944381D01*
X14149016Y-11963428D01*
X14139492Y-11972952D01*
X14120444Y-11982476D01*
X14101397Y-11982476D01*
X14082349Y-11972952D01*
X14072825Y-11963428D01*
X14063301Y-11944381D01*
X14053778Y-11906286D01*
X14053778Y-11858667D01*
X14063301Y-11820571D01*
X14072825Y-11801524D01*
X14082349Y-11792000D01*
X14101397Y-11782476D01*
X14244254Y-11801524D02*
X14253778Y-11792000D01*
X14272825Y-11782476D01*
X14320444Y-11782476D01*
X14339492Y-11792000D01*
X14349016Y-11801524D01*
X14358539Y-11820571D01*
X14358539Y-11839619D01*
X14349016Y-11868190D01*
X14234730Y-11982476D01*
X14358539Y-11982476D01*
X14425206Y-11782476D02*
X14558539Y-11782476D01*
X14472825Y-11982476D01*
X14720444Y-11782476D02*
X14682349Y-11782476D01*
X14663301Y-11792000D01*
X14653778Y-11801524D01*
X14634730Y-11830095D01*
X14625206Y-11868190D01*
X14625206Y-11944381D01*
X14634730Y-11963428D01*
X14644254Y-11972952D01*
X14663301Y-11982476D01*
X14701397Y-11982476D01*
X14720444Y-11972952D01*
X14729968Y-11963428D01*
X14739492Y-11944381D01*
X14739492Y-11896762D01*
X14729968Y-11877714D01*
X14720444Y-11868190D01*
X14701397Y-11858667D01*
X14663301Y-11858667D01*
X14644254Y-11868190D01*
X14634730Y-11877714D01*
X14625206Y-11896762D01*
X14815682Y-11782476D02*
X14815682Y-11820571D01*
X14891873Y-11782476D02*
X14891873Y-11820571D01*
X15187111Y-12058667D02*
X15177587Y-12049143D01*
X15158539Y-12020571D01*
X15149016Y-12001524D01*
X15139492Y-11972952D01*
X15129968Y-11925333D01*
X15129968Y-11887238D01*
X15139492Y-11839619D01*
X15149016Y-11811048D01*
X15158539Y-11792000D01*
X15177587Y-11763428D01*
X15187111Y-11753905D01*
X15358539Y-11782476D02*
X15263301Y-11782476D01*
X15253778Y-11877714D01*
X15263301Y-11868190D01*
X15282349Y-11858667D01*
X15329968Y-11858667D01*
X15349016Y-11868190D01*
X15358539Y-11877714D01*
X15368063Y-11896762D01*
X15368063Y-11944381D01*
X15358539Y-11963428D01*
X15349016Y-11972952D01*
X15329968Y-11982476D01*
X15282349Y-11982476D01*
X15263301Y-11972952D01*
X15253778Y-11963428D01*
X15606158Y-11982476D02*
X15606158Y-11782476D01*
X15691873Y-11982476D02*
X15691873Y-11877714D01*
X15682349Y-11858667D01*
X15663301Y-11849143D01*
X15634730Y-11849143D01*
X15615682Y-11858667D01*
X15606158Y-11868190D01*
X15815682Y-11982476D02*
X15796635Y-11972952D01*
X15787111Y-11963428D01*
X15777587Y-11944381D01*
X15777587Y-11887238D01*
X15787111Y-11868190D01*
X15796635Y-11858667D01*
X15815682Y-11849143D01*
X15844254Y-11849143D01*
X15863301Y-11858667D01*
X15872825Y-11868190D01*
X15882349Y-11887238D01*
X15882349Y-11944381D01*
X15872825Y-11963428D01*
X15863301Y-11972952D01*
X15844254Y-11982476D01*
X15815682Y-11982476D01*
X15996635Y-11982476D02*
X15977587Y-11972952D01*
X15968063Y-11953905D01*
X15968063Y-11782476D01*
X16149016Y-11972952D02*
X16129968Y-11982476D01*
X16091873Y-11982476D01*
X16072825Y-11972952D01*
X16063301Y-11953905D01*
X16063301Y-11877714D01*
X16072825Y-11858667D01*
X16091873Y-11849143D01*
X16129968Y-11849143D01*
X16149016Y-11858667D01*
X16158539Y-11877714D01*
X16158539Y-11896762D01*
X16063301Y-11915809D01*
X16234730Y-11972952D02*
X16253778Y-11982476D01*
X16291873Y-11982476D01*
X16310920Y-11972952D01*
X16320444Y-11953905D01*
X16320444Y-11944381D01*
X16310920Y-11925333D01*
X16291873Y-11915809D01*
X16263301Y-11915809D01*
X16244254Y-11906286D01*
X16234730Y-11887238D01*
X16234730Y-11877714D01*
X16244254Y-11858667D01*
X16263301Y-11849143D01*
X16291873Y-11849143D01*
X16310920Y-11858667D01*
X16387111Y-12058667D02*
X16396635Y-12049143D01*
X16415682Y-12020571D01*
X16425206Y-12001524D01*
X16434730Y-11972952D01*
X16444254Y-11925333D01*
X16444254Y-11887238D01*
X16434730Y-11839619D01*
X16425206Y-11811048D01*
X16415682Y-11792000D01*
X16396635Y-11763428D01*
X16387111Y-11753905D01*
X16749016Y-12058667D02*
X16739492Y-12049143D01*
X16720444Y-12020571D01*
X16710920Y-12001524D01*
X16701397Y-11972952D01*
X16691873Y-11925333D01*
X16691873Y-11887238D01*
X16701397Y-11839619D01*
X16710920Y-11811048D01*
X16720444Y-11792000D01*
X16739492Y-11763428D01*
X16749016Y-11753905D01*
X16825206Y-11849143D02*
X16825206Y-11982476D01*
X16825206Y-11868190D02*
X16834730Y-11858667D01*
X16853778Y-11849143D01*
X16882349Y-11849143D01*
X16901397Y-11858667D01*
X16910920Y-11877714D01*
X16910920Y-11982476D01*
X17034730Y-11982476D02*
X17015682Y-11972952D01*
X17006159Y-11963428D01*
X16996635Y-11944381D01*
X16996635Y-11887238D01*
X17006159Y-11868190D01*
X17015682Y-11858667D01*
X17034730Y-11849143D01*
X17063301Y-11849143D01*
X17082349Y-11858667D01*
X17091873Y-11868190D01*
X17101397Y-11887238D01*
X17101397Y-11944381D01*
X17091873Y-11963428D01*
X17082349Y-11972952D01*
X17063301Y-11982476D01*
X17034730Y-11982476D01*
X17158540Y-11849143D02*
X17234730Y-11849143D01*
X17187111Y-11782476D02*
X17187111Y-11953905D01*
X17196635Y-11972952D01*
X17215682Y-11982476D01*
X17234730Y-11982476D01*
X17453778Y-11849143D02*
X17453778Y-12049143D01*
X17453778Y-11858667D02*
X17472825Y-11849143D01*
X17510920Y-11849143D01*
X17529968Y-11858667D01*
X17539492Y-11868190D01*
X17549016Y-11887238D01*
X17549016Y-11944381D01*
X17539492Y-11963428D01*
X17529968Y-11972952D01*
X17510920Y-11982476D01*
X17472825Y-11982476D01*
X17453778Y-11972952D01*
X17663301Y-11982476D02*
X17644254Y-11972952D01*
X17634730Y-11953905D01*
X17634730Y-11782476D01*
X17825206Y-11982476D02*
X17825206Y-11877714D01*
X17815682Y-11858667D01*
X17796635Y-11849143D01*
X17758540Y-11849143D01*
X17739492Y-11858667D01*
X17825206Y-11972952D02*
X17806159Y-11982476D01*
X17758540Y-11982476D01*
X17739492Y-11972952D01*
X17729968Y-11953905D01*
X17729968Y-11934857D01*
X17739492Y-11915809D01*
X17758540Y-11906286D01*
X17806159Y-11906286D01*
X17825206Y-11896762D01*
X17891873Y-11849143D02*
X17968063Y-11849143D01*
X17920444Y-11782476D02*
X17920444Y-11953905D01*
X17929968Y-11972952D01*
X17949016Y-11982476D01*
X17968063Y-11982476D01*
X18110920Y-11972952D02*
X18091873Y-11982476D01*
X18053778Y-11982476D01*
X18034730Y-11972952D01*
X18025206Y-11953905D01*
X18025206Y-11877714D01*
X18034730Y-11858667D01*
X18053778Y-11849143D01*
X18091873Y-11849143D01*
X18110920Y-11858667D01*
X18120444Y-11877714D01*
X18120444Y-11896762D01*
X18025206Y-11915809D01*
X18291873Y-11982476D02*
X18291873Y-11782476D01*
X18291873Y-11972952D02*
X18272825Y-11982476D01*
X18234730Y-11982476D01*
X18215682Y-11972952D01*
X18206159Y-11963428D01*
X18196635Y-11944381D01*
X18196635Y-11887238D01*
X18206159Y-11868190D01*
X18215682Y-11858667D01*
X18234730Y-11849143D01*
X18272825Y-11849143D01*
X18291873Y-11858667D01*
X18368063Y-12058667D02*
X18377587Y-12049143D01*
X18396635Y-12020571D01*
X18406159Y-12001524D01*
X18415682Y-11972952D01*
X18425206Y-11925333D01*
X18425206Y-11887238D01*
X18415682Y-11839619D01*
X18406159Y-11811048D01*
X18396635Y-11792000D01*
X18377587Y-11763428D01*
X18368063Y-11753905D01*
M02*
