%TF.GenerationSoftware,KiCad,Pcbnew,(6.0.9)*%
%TF.CreationDate,2022-11-24T16:49:11+01:00*%
%TF.ProjectId,LDAD ATOM PRO,4c444144-2041-4544-9f4d-2050524f2e6b,5.3*%
%TF.SameCoordinates,Original*%
%TF.FileFunction,Legend,Top*%
%TF.FilePolarity,Positive*%
%FSLAX46Y46*%
G04 Gerber Fmt 4.6, Leading zero omitted, Abs format (unit mm)*
G04 Created by KiCad (PCBNEW (6.0.9)) date 2022-11-24 16:49:11*
%MOMM*%
%LPD*%
G01*
G04 APERTURE LIST*
%ADD10C,0.280000*%
%ADD11C,0.340000*%
%ADD12C,0.150000*%
%ADD13C,0.200000*%
%ADD14C,0.120000*%
%ADD15C,0.127000*%
%ADD16C,0.381000*%
%ADD17C,0.300000*%
G04 APERTURE END LIST*
D10*
X152501050Y-107610000D02*
G75*
G03*
X152501050Y-107610000I-191050J0D01*
G01*
D11*
X147470799Y-86590000D02*
G75*
G03*
X147470799Y-86590000I-250799J0D01*
G01*
D10*
X149671050Y-89850000D02*
G75*
G03*
X149671050Y-89850000I-191050J0D01*
G01*
X137931050Y-89150000D02*
G75*
G03*
X137931050Y-89150000I-191050J0D01*
G01*
X156248694Y-108268951D02*
G75*
G03*
X156248694Y-108268951I-218694J0D01*
G01*
X159311050Y-102380000D02*
G75*
G03*
X159311050Y-102380000I-191050J0D01*
G01*
X145951050Y-94970000D02*
G75*
G03*
X145951050Y-94970000I-191050J0D01*
G01*
X135361050Y-99730000D02*
G75*
G03*
X135361050Y-99730000I-191050J0D01*
G01*
X159501050Y-90160000D02*
G75*
G03*
X159501050Y-90160000I-191050J0D01*
G01*
X137771050Y-95630000D02*
G75*
G03*
X137771050Y-95630000I-191050J0D01*
G01*
D12*
X150013333Y-83453333D02*
X150013333Y-83120000D01*
X149680000Y-83086666D01*
X149713333Y-83120000D01*
X149746666Y-83186666D01*
X149746666Y-83353333D01*
X149713333Y-83420000D01*
X149680000Y-83453333D01*
X149613333Y-83486666D01*
X149446666Y-83486666D01*
X149380000Y-83453333D01*
X149346666Y-83420000D01*
X149313333Y-83353333D01*
X149313333Y-83186666D01*
X149346666Y-83120000D01*
X149380000Y-83086666D01*
X150013333Y-83686666D02*
X149313333Y-83920000D01*
X150013333Y-84153333D01*
X150013333Y-84520000D02*
X150013333Y-84586666D01*
X149980000Y-84653333D01*
X149946666Y-84686666D01*
X149880000Y-84720000D01*
X149746666Y-84753333D01*
X149580000Y-84753333D01*
X149446666Y-84720000D01*
X149380000Y-84686666D01*
X149346666Y-84653333D01*
X149313333Y-84586666D01*
X149313333Y-84520000D01*
X149346666Y-84453333D01*
X149380000Y-84420000D01*
X149446666Y-84386666D01*
X149580000Y-84353333D01*
X149746666Y-84353333D01*
X149880000Y-84386666D01*
X149946666Y-84420000D01*
X149980000Y-84453333D01*
X150013333Y-84520000D01*
D13*
X141404761Y-109157619D02*
X141404761Y-110048095D01*
X141457142Y-110152857D01*
X141509523Y-110205238D01*
X141614285Y-110257619D01*
X141823809Y-110257619D01*
X141928571Y-110205238D01*
X141980952Y-110152857D01*
X142033333Y-110048095D01*
X142033333Y-109157619D01*
X142557142Y-109524285D02*
X142557142Y-110257619D01*
X142557142Y-109629047D02*
X142609523Y-109576666D01*
X142714285Y-109524285D01*
X142871428Y-109524285D01*
X142976190Y-109576666D01*
X143028571Y-109681428D01*
X143028571Y-110257619D01*
X143552380Y-110257619D02*
X143552380Y-109524285D01*
X143552380Y-109157619D02*
X143500000Y-109210000D01*
X143552380Y-109262380D01*
X143604761Y-109210000D01*
X143552380Y-109157619D01*
X143552380Y-109262380D01*
X144547619Y-109524285D02*
X144547619Y-110624285D01*
X144547619Y-110205238D02*
X144442857Y-110257619D01*
X144233333Y-110257619D01*
X144128571Y-110205238D01*
X144076190Y-110152857D01*
X144023809Y-110048095D01*
X144023809Y-109733809D01*
X144076190Y-109629047D01*
X144128571Y-109576666D01*
X144233333Y-109524285D01*
X144442857Y-109524285D01*
X144547619Y-109576666D01*
X145542857Y-109524285D02*
X145542857Y-110257619D01*
X145071428Y-109524285D02*
X145071428Y-110100476D01*
X145123809Y-110205238D01*
X145228571Y-110257619D01*
X145385714Y-110257619D01*
X145490476Y-110205238D01*
X145542857Y-110152857D01*
X146485714Y-110205238D02*
X146380952Y-110257619D01*
X146171428Y-110257619D01*
X146066666Y-110205238D01*
X146014285Y-110100476D01*
X146014285Y-109681428D01*
X146066666Y-109576666D01*
X146171428Y-109524285D01*
X146380952Y-109524285D01*
X146485714Y-109576666D01*
X146538095Y-109681428D01*
X146538095Y-109786190D01*
X146014285Y-109890952D01*
X147847619Y-110257619D02*
X147847619Y-109157619D01*
X148109523Y-109157619D01*
X148266666Y-109210000D01*
X148371428Y-109314761D01*
X148423809Y-109419523D01*
X148476190Y-109629047D01*
X148476190Y-109786190D01*
X148423809Y-109995714D01*
X148371428Y-110100476D01*
X148266666Y-110205238D01*
X148109523Y-110257619D01*
X147847619Y-110257619D01*
X148895238Y-109943333D02*
X149419047Y-109943333D01*
X148790476Y-110257619D02*
X149157142Y-109157619D01*
X149523809Y-110257619D01*
X149733333Y-109157619D02*
X150361904Y-109157619D01*
X150047619Y-110257619D02*
X150047619Y-109157619D01*
X150676190Y-109943333D02*
X151200000Y-109943333D01*
X150571428Y-110257619D02*
X150938095Y-109157619D01*
X151304761Y-110257619D01*
X152876190Y-109681428D02*
X152509523Y-109681428D01*
X152509523Y-110257619D02*
X152509523Y-109157619D01*
X153033333Y-109157619D01*
X153452380Y-110257619D02*
X153452380Y-109524285D01*
X153452380Y-109157619D02*
X153400000Y-109210000D01*
X153452380Y-109262380D01*
X153504761Y-109210000D01*
X153452380Y-109157619D01*
X153452380Y-109262380D01*
X153976190Y-109524285D02*
X153976190Y-110257619D01*
X153976190Y-109629047D02*
X154028571Y-109576666D01*
X154133333Y-109524285D01*
X154290476Y-109524285D01*
X154395238Y-109576666D01*
X154447619Y-109681428D01*
X154447619Y-110257619D01*
X155442857Y-109524285D02*
X155442857Y-110414761D01*
X155390476Y-110519523D01*
X155338095Y-110571904D01*
X155233333Y-110624285D01*
X155076190Y-110624285D01*
X154971428Y-110571904D01*
X155442857Y-110205238D02*
X155338095Y-110257619D01*
X155128571Y-110257619D01*
X155023809Y-110205238D01*
X154971428Y-110152857D01*
X154919047Y-110048095D01*
X154919047Y-109733809D01*
X154971428Y-109629047D01*
X155023809Y-109576666D01*
X155128571Y-109524285D01*
X155338095Y-109524285D01*
X155442857Y-109576666D01*
X156385714Y-110205238D02*
X156280952Y-110257619D01*
X156071428Y-110257619D01*
X155966666Y-110205238D01*
X155914285Y-110100476D01*
X155914285Y-109681428D01*
X155966666Y-109576666D01*
X156071428Y-109524285D01*
X156280952Y-109524285D01*
X156385714Y-109576666D01*
X156438095Y-109681428D01*
X156438095Y-109786190D01*
X155914285Y-109890952D01*
X156909523Y-110257619D02*
X156909523Y-109524285D01*
X156909523Y-109733809D02*
X156961904Y-109629047D01*
X157014285Y-109576666D01*
X157119047Y-109524285D01*
X157223809Y-109524285D01*
X157590476Y-110257619D02*
X157590476Y-109157619D01*
X158009523Y-109157619D01*
X158114285Y-109210000D01*
X158166666Y-109262380D01*
X158219047Y-109367142D01*
X158219047Y-109524285D01*
X158166666Y-109629047D01*
X158114285Y-109681428D01*
X158009523Y-109733809D01*
X157590476Y-109733809D01*
X158690476Y-110257619D02*
X158690476Y-109524285D01*
X158690476Y-109733809D02*
X158742857Y-109629047D01*
X158795238Y-109576666D01*
X158900000Y-109524285D01*
X159004761Y-109524285D01*
X159371428Y-110257619D02*
X159371428Y-109524285D01*
X159371428Y-109157619D02*
X159319047Y-109210000D01*
X159371428Y-109262380D01*
X159423809Y-109210000D01*
X159371428Y-109157619D01*
X159371428Y-109262380D01*
X159895238Y-109524285D02*
X159895238Y-110257619D01*
X159895238Y-109629047D02*
X159947619Y-109576666D01*
X160052380Y-109524285D01*
X160209523Y-109524285D01*
X160314285Y-109576666D01*
X160366666Y-109681428D01*
X160366666Y-110257619D01*
X160733333Y-109524285D02*
X161152380Y-109524285D01*
X160890476Y-109157619D02*
X160890476Y-110100476D01*
X160942857Y-110205238D01*
X161047619Y-110257619D01*
X161152380Y-110257619D01*
D12*
X121460000Y-108016666D02*
X121793333Y-108016666D01*
X121393333Y-108216666D02*
X121626666Y-107516666D01*
X121860000Y-108216666D01*
X122093333Y-108216666D02*
X122093333Y-107516666D01*
X122493333Y-108216666D01*
X122493333Y-107516666D01*
X122726666Y-107516666D02*
X123126666Y-107516666D01*
X122926666Y-108216666D02*
X122926666Y-107516666D01*
X123360000Y-107850000D02*
X123593333Y-107850000D01*
X123693333Y-108216666D02*
X123360000Y-108216666D01*
X123360000Y-107516666D01*
X123693333Y-107516666D01*
X123993333Y-108216666D02*
X123993333Y-107516666D01*
X124393333Y-108216666D01*
X124393333Y-107516666D01*
X124726666Y-108216666D02*
X124726666Y-107516666D01*
X125126666Y-108216666D01*
X125126666Y-107516666D01*
X125426666Y-108016666D02*
X125760000Y-108016666D01*
X125360000Y-108216666D02*
X125593333Y-107516666D01*
X125826666Y-108216666D01*
D13*
X117619047Y-110387619D02*
X116990476Y-110387619D01*
X117304761Y-110387619D02*
X117304761Y-109287619D01*
X117200000Y-109444761D01*
X117095238Y-109549523D01*
X116990476Y-109601904D01*
X118090476Y-110282857D02*
X118142857Y-110335238D01*
X118090476Y-110387619D01*
X118038095Y-110335238D01*
X118090476Y-110282857D01*
X118090476Y-110387619D01*
X119085714Y-109287619D02*
X118876190Y-109287619D01*
X118771428Y-109340000D01*
X118719047Y-109392380D01*
X118614285Y-109549523D01*
X118561904Y-109759047D01*
X118561904Y-110178095D01*
X118614285Y-110282857D01*
X118666666Y-110335238D01*
X118771428Y-110387619D01*
X118980952Y-110387619D01*
X119085714Y-110335238D01*
X119138095Y-110282857D01*
X119190476Y-110178095D01*
X119190476Y-109916190D01*
X119138095Y-109811428D01*
X119085714Y-109759047D01*
X118980952Y-109706666D01*
X118771428Y-109706666D01*
X118666666Y-109759047D01*
X118614285Y-109811428D01*
X118561904Y-109916190D01*
X119714285Y-110387619D02*
X119923809Y-110387619D01*
X120028571Y-110335238D01*
X120080952Y-110282857D01*
X120185714Y-110125714D01*
X120238095Y-109916190D01*
X120238095Y-109497142D01*
X120185714Y-109392380D01*
X120133333Y-109340000D01*
X120028571Y-109287619D01*
X119819047Y-109287619D01*
X119714285Y-109340000D01*
X119661904Y-109392380D01*
X119609523Y-109497142D01*
X119609523Y-109759047D01*
X119661904Y-109863809D01*
X119714285Y-109916190D01*
X119819047Y-109968571D01*
X120028571Y-109968571D01*
X120133333Y-109916190D01*
X120185714Y-109863809D01*
X120238095Y-109759047D01*
X120657142Y-109287619D02*
X120657142Y-109497142D01*
X121076190Y-109287619D02*
X121076190Y-109497142D01*
X122909523Y-110387619D02*
X122385714Y-110387619D01*
X122385714Y-109287619D01*
X123904761Y-110282857D02*
X123852380Y-110335238D01*
X123695238Y-110387619D01*
X123590476Y-110387619D01*
X123433333Y-110335238D01*
X123328571Y-110230476D01*
X123276190Y-110125714D01*
X123223809Y-109916190D01*
X123223809Y-109759047D01*
X123276190Y-109549523D01*
X123328571Y-109444761D01*
X123433333Y-109340000D01*
X123590476Y-109287619D01*
X123695238Y-109287619D01*
X123852380Y-109340000D01*
X123904761Y-109392380D01*
X124376190Y-110387619D02*
X124376190Y-109287619D01*
X124638095Y-109287619D01*
X124795238Y-109340000D01*
X124900000Y-109444761D01*
X124952380Y-109549523D01*
X125004761Y-109759047D01*
X125004761Y-109916190D01*
X124952380Y-110125714D01*
X124900000Y-110230476D01*
X124795238Y-110335238D01*
X124638095Y-110387619D01*
X124376190Y-110387619D01*
X126157142Y-109287619D02*
X126785714Y-109287619D01*
X126471428Y-110387619D02*
X126471428Y-109287619D01*
X127519047Y-109811428D02*
X127152380Y-109811428D01*
X127152380Y-110387619D02*
X127152380Y-109287619D01*
X127676190Y-109287619D01*
X127938095Y-109287619D02*
X128566666Y-109287619D01*
X128252380Y-110387619D02*
X128252380Y-109287619D01*
X129771428Y-110387619D02*
X129771428Y-109287619D01*
X130295238Y-110387619D02*
X130295238Y-109287619D01*
X130714285Y-109287619D01*
X130819047Y-109340000D01*
X130871428Y-109392380D01*
X130923809Y-109497142D01*
X130923809Y-109654285D01*
X130871428Y-109759047D01*
X130819047Y-109811428D01*
X130714285Y-109863809D01*
X130295238Y-109863809D01*
X131342857Y-110335238D02*
X131500000Y-110387619D01*
X131761904Y-110387619D01*
X131866666Y-110335238D01*
X131919047Y-110282857D01*
X131971428Y-110178095D01*
X131971428Y-110073333D01*
X131919047Y-109968571D01*
X131866666Y-109916190D01*
X131761904Y-109863809D01*
X131552380Y-109811428D01*
X131447619Y-109759047D01*
X131395238Y-109706666D01*
X131342857Y-109601904D01*
X131342857Y-109497142D01*
X131395238Y-109392380D01*
X131447619Y-109340000D01*
X131552380Y-109287619D01*
X131814285Y-109287619D01*
X131971428Y-109340000D01*
X133416190Y-84117619D02*
X133416190Y-83384285D01*
X133416190Y-83593809D02*
X133468571Y-83489047D01*
X133520952Y-83436666D01*
X133625714Y-83384285D01*
X133730476Y-83384285D01*
X134516190Y-84065238D02*
X134411428Y-84117619D01*
X134201904Y-84117619D01*
X134097142Y-84065238D01*
X134044761Y-83960476D01*
X134044761Y-83541428D01*
X134097142Y-83436666D01*
X134201904Y-83384285D01*
X134411428Y-83384285D01*
X134516190Y-83436666D01*
X134568571Y-83541428D01*
X134568571Y-83646190D01*
X134044761Y-83750952D01*
X134935238Y-83384285D02*
X135197142Y-84117619D01*
X135459047Y-83384285D01*
X135878095Y-84012857D02*
X135930476Y-84065238D01*
X135878095Y-84117619D01*
X135825714Y-84065238D01*
X135878095Y-84012857D01*
X135878095Y-84117619D01*
X137816190Y-84117619D02*
X137187619Y-84117619D01*
X137501904Y-84117619D02*
X137501904Y-83017619D01*
X137397142Y-83174761D01*
X137292380Y-83279523D01*
X137187619Y-83331904D01*
X138863809Y-84117619D02*
X138235238Y-84117619D01*
X138549523Y-84117619D02*
X138549523Y-83017619D01*
X138444761Y-83174761D01*
X138340000Y-83279523D01*
X138235238Y-83331904D01*
X139335238Y-83698571D02*
X140173333Y-83698571D01*
X140644761Y-83122380D02*
X140697142Y-83070000D01*
X140801904Y-83017619D01*
X141063809Y-83017619D01*
X141168571Y-83070000D01*
X141220952Y-83122380D01*
X141273333Y-83227142D01*
X141273333Y-83331904D01*
X141220952Y-83489047D01*
X140592380Y-84117619D01*
X141273333Y-84117619D01*
X141954285Y-83017619D02*
X142059047Y-83017619D01*
X142163809Y-83070000D01*
X142216190Y-83122380D01*
X142268571Y-83227142D01*
X142320952Y-83436666D01*
X142320952Y-83698571D01*
X142268571Y-83908095D01*
X142216190Y-84012857D01*
X142163809Y-84065238D01*
X142059047Y-84117619D01*
X141954285Y-84117619D01*
X141849523Y-84065238D01*
X141797142Y-84012857D01*
X141744761Y-83908095D01*
X141692380Y-83698571D01*
X141692380Y-83436666D01*
X141744761Y-83227142D01*
X141797142Y-83122380D01*
X141849523Y-83070000D01*
X141954285Y-83017619D01*
X142740000Y-83122380D02*
X142792380Y-83070000D01*
X142897142Y-83017619D01*
X143159047Y-83017619D01*
X143263809Y-83070000D01*
X143316190Y-83122380D01*
X143368571Y-83227142D01*
X143368571Y-83331904D01*
X143316190Y-83489047D01*
X142687619Y-84117619D01*
X143368571Y-84117619D01*
X143787619Y-83122380D02*
X143840000Y-83070000D01*
X143944761Y-83017619D01*
X144206666Y-83017619D01*
X144311428Y-83070000D01*
X144363809Y-83122380D01*
X144416190Y-83227142D01*
X144416190Y-83331904D01*
X144363809Y-83489047D01*
X143735238Y-84117619D01*
X144416190Y-84117619D01*
D12*
X149673333Y-85866666D02*
X150106666Y-85866666D01*
X149873333Y-86133333D01*
X149973333Y-86133333D01*
X150040000Y-86166666D01*
X150073333Y-86200000D01*
X150106666Y-86266666D01*
X150106666Y-86433333D01*
X150073333Y-86500000D01*
X150040000Y-86533333D01*
X149973333Y-86566666D01*
X149773333Y-86566666D01*
X149706666Y-86533333D01*
X149673333Y-86500000D01*
X150306666Y-85866666D02*
X150540000Y-86566666D01*
X150773333Y-85866666D01*
X150940000Y-85866666D02*
X151373333Y-85866666D01*
X151140000Y-86133333D01*
X151240000Y-86133333D01*
X151306666Y-86166666D01*
X151340000Y-86200000D01*
X151373333Y-86266666D01*
X151373333Y-86433333D01*
X151340000Y-86500000D01*
X151306666Y-86533333D01*
X151240000Y-86566666D01*
X151040000Y-86566666D01*
X150973333Y-86533333D01*
X150940000Y-86500000D01*
D13*
X132160952Y-85642857D02*
X132108571Y-85695238D01*
X131951428Y-85747619D01*
X131846666Y-85747619D01*
X131689523Y-85695238D01*
X131584761Y-85590476D01*
X131532380Y-85485714D01*
X131480000Y-85276190D01*
X131480000Y-85119047D01*
X131532380Y-84909523D01*
X131584761Y-84804761D01*
X131689523Y-84700000D01*
X131846666Y-84647619D01*
X131951428Y-84647619D01*
X132108571Y-84700000D01*
X132160952Y-84752380D01*
X132789523Y-85747619D02*
X132684761Y-85695238D01*
X132632380Y-85642857D01*
X132580000Y-85538095D01*
X132580000Y-85223809D01*
X132632380Y-85119047D01*
X132684761Y-85066666D01*
X132789523Y-85014285D01*
X132946666Y-85014285D01*
X133051428Y-85066666D01*
X133103809Y-85119047D01*
X133156190Y-85223809D01*
X133156190Y-85538095D01*
X133103809Y-85642857D01*
X133051428Y-85695238D01*
X132946666Y-85747619D01*
X132789523Y-85747619D01*
X133627619Y-85014285D02*
X133627619Y-86114285D01*
X133627619Y-85066666D02*
X133732380Y-85014285D01*
X133941904Y-85014285D01*
X134046666Y-85066666D01*
X134099047Y-85119047D01*
X134151428Y-85223809D01*
X134151428Y-85538095D01*
X134099047Y-85642857D01*
X134046666Y-85695238D01*
X133941904Y-85747619D01*
X133732380Y-85747619D01*
X133627619Y-85695238D01*
X134518095Y-85014285D02*
X134780000Y-85747619D01*
X135041904Y-85014285D02*
X134780000Y-85747619D01*
X134675238Y-86009523D01*
X134622857Y-86061904D01*
X134518095Y-86114285D01*
X135460952Y-85747619D02*
X135460952Y-85014285D01*
X135460952Y-85223809D02*
X135513333Y-85119047D01*
X135565714Y-85066666D01*
X135670476Y-85014285D01*
X135775238Y-85014285D01*
X136141904Y-85747619D02*
X136141904Y-85014285D01*
X136141904Y-84647619D02*
X136089523Y-84700000D01*
X136141904Y-84752380D01*
X136194285Y-84700000D01*
X136141904Y-84647619D01*
X136141904Y-84752380D01*
X137137142Y-85014285D02*
X137137142Y-85904761D01*
X137084761Y-86009523D01*
X137032380Y-86061904D01*
X136927619Y-86114285D01*
X136770476Y-86114285D01*
X136665714Y-86061904D01*
X137137142Y-85695238D02*
X137032380Y-85747619D01*
X136822857Y-85747619D01*
X136718095Y-85695238D01*
X136665714Y-85642857D01*
X136613333Y-85538095D01*
X136613333Y-85223809D01*
X136665714Y-85119047D01*
X136718095Y-85066666D01*
X136822857Y-85014285D01*
X137032380Y-85014285D01*
X137137142Y-85066666D01*
X137660952Y-85747619D02*
X137660952Y-84647619D01*
X138132380Y-85747619D02*
X138132380Y-85171428D01*
X138080000Y-85066666D01*
X137975238Y-85014285D01*
X137818095Y-85014285D01*
X137713333Y-85066666D01*
X137660952Y-85119047D01*
X138499047Y-85014285D02*
X138918095Y-85014285D01*
X138656190Y-84647619D02*
X138656190Y-85590476D01*
X138708571Y-85695238D01*
X138813333Y-85747619D01*
X138918095Y-85747619D01*
X140751428Y-85642857D02*
X140699047Y-85695238D01*
X140541904Y-85747619D01*
X140437142Y-85747619D01*
X140280000Y-85695238D01*
X140175238Y-85590476D01*
X140122857Y-85485714D01*
X140070476Y-85276190D01*
X140070476Y-85119047D01*
X140122857Y-84909523D01*
X140175238Y-84804761D01*
X140280000Y-84700000D01*
X140437142Y-84647619D01*
X140541904Y-84647619D01*
X140699047Y-84700000D01*
X140751428Y-84752380D01*
X141851428Y-85642857D02*
X141799047Y-85695238D01*
X141641904Y-85747619D01*
X141537142Y-85747619D01*
X141380000Y-85695238D01*
X141275238Y-85590476D01*
X141222857Y-85485714D01*
X141170476Y-85276190D01*
X141170476Y-85119047D01*
X141222857Y-84909523D01*
X141275238Y-84804761D01*
X141380000Y-84700000D01*
X141537142Y-84647619D01*
X141641904Y-84647619D01*
X141799047Y-84700000D01*
X141851428Y-84752380D01*
X143108571Y-84752380D02*
X143160952Y-84700000D01*
X143265714Y-84647619D01*
X143527619Y-84647619D01*
X143632380Y-84700000D01*
X143684761Y-84752380D01*
X143737142Y-84857142D01*
X143737142Y-84961904D01*
X143684761Y-85119047D01*
X143056190Y-85747619D01*
X143737142Y-85747619D01*
X144418095Y-84647619D02*
X144522857Y-84647619D01*
X144627619Y-84700000D01*
X144680000Y-84752380D01*
X144732380Y-84857142D01*
X144784761Y-85066666D01*
X144784761Y-85328571D01*
X144732380Y-85538095D01*
X144680000Y-85642857D01*
X144627619Y-85695238D01*
X144522857Y-85747619D01*
X144418095Y-85747619D01*
X144313333Y-85695238D01*
X144260952Y-85642857D01*
X144208571Y-85538095D01*
X144156190Y-85328571D01*
X144156190Y-85066666D01*
X144208571Y-84857142D01*
X144260952Y-84752380D01*
X144313333Y-84700000D01*
X144418095Y-84647619D01*
X145203809Y-84752380D02*
X145256190Y-84700000D01*
X145360952Y-84647619D01*
X145622857Y-84647619D01*
X145727619Y-84700000D01*
X145780000Y-84752380D01*
X145832380Y-84857142D01*
X145832380Y-84961904D01*
X145780000Y-85119047D01*
X145151428Y-85747619D01*
X145832380Y-85747619D01*
X146251428Y-84752380D02*
X146303809Y-84700000D01*
X146408571Y-84647619D01*
X146670476Y-84647619D01*
X146775238Y-84700000D01*
X146827619Y-84752380D01*
X146880000Y-84857142D01*
X146880000Y-84961904D01*
X146827619Y-85119047D01*
X146199047Y-85747619D01*
X146880000Y-85747619D01*
X119639047Y-111927619D02*
X119010476Y-111927619D01*
X119324761Y-111927619D02*
X119324761Y-110827619D01*
X119219999Y-110984761D01*
X119115238Y-111089523D01*
X119010476Y-111141904D01*
X120058095Y-110932380D02*
X120110476Y-110880000D01*
X120215238Y-110827619D01*
X120477142Y-110827619D01*
X120581904Y-110880000D01*
X120634285Y-110932380D01*
X120686666Y-111037142D01*
X120686666Y-111141904D01*
X120634285Y-111299047D01*
X120005714Y-111927619D01*
X120686666Y-111927619D01*
X121524761Y-111351428D02*
X121681904Y-111403809D01*
X121734285Y-111456190D01*
X121786666Y-111560952D01*
X121786666Y-111718095D01*
X121734285Y-111822857D01*
X121681904Y-111875238D01*
X121577142Y-111927619D01*
X121158095Y-111927619D01*
X121158095Y-110827619D01*
X121524761Y-110827619D01*
X121629523Y-110880000D01*
X121681904Y-110932380D01*
X121734285Y-111037142D01*
X121734285Y-111141904D01*
X121681904Y-111246666D01*
X121629523Y-111299047D01*
X121524761Y-111351428D01*
X121158095Y-111351428D01*
X122258095Y-111927619D02*
X122258095Y-111194285D01*
X122258095Y-110827619D02*
X122205714Y-110880000D01*
X122258095Y-110932380D01*
X122310476Y-110880000D01*
X122258095Y-110827619D01*
X122258095Y-110932380D01*
X122624761Y-111194285D02*
X123043809Y-111194285D01*
X122781904Y-110827619D02*
X122781904Y-111770476D01*
X122834285Y-111875238D01*
X122939047Y-111927619D01*
X123043809Y-111927619D01*
X124248571Y-111927619D02*
X124248571Y-110827619D01*
X124510476Y-110827619D01*
X124667619Y-110880000D01*
X124772380Y-110984761D01*
X124824761Y-111089523D01*
X124877142Y-111299047D01*
X124877142Y-111456190D01*
X124824761Y-111665714D01*
X124772380Y-111770476D01*
X124667619Y-111875238D01*
X124510476Y-111927619D01*
X124248571Y-111927619D01*
X125296190Y-111613333D02*
X125819999Y-111613333D01*
X125191428Y-111927619D02*
X125558095Y-110827619D01*
X125924761Y-111927619D01*
X127024761Y-112032380D02*
X126919999Y-111980000D01*
X126815238Y-111875238D01*
X126658095Y-111718095D01*
X126553333Y-111665714D01*
X126448571Y-111665714D01*
X126500952Y-111927619D02*
X126396190Y-111875238D01*
X126291428Y-111770476D01*
X126239047Y-111560952D01*
X126239047Y-111194285D01*
X126291428Y-110984761D01*
X126396190Y-110880000D01*
X126500952Y-110827619D01*
X126710476Y-110827619D01*
X126815238Y-110880000D01*
X126919999Y-110984761D01*
X126972380Y-111194285D01*
X126972380Y-111560952D01*
X126919999Y-111770476D01*
X126815238Y-111875238D01*
X126710476Y-111927619D01*
X126500952Y-111927619D01*
X128177142Y-110827619D02*
X128439047Y-111927619D01*
X128648571Y-111141904D01*
X128858095Y-111927619D01*
X129120000Y-110827619D01*
X129539047Y-111927619D02*
X129539047Y-110827619D01*
X130429523Y-111351428D02*
X130062857Y-111351428D01*
X130062857Y-111927619D02*
X130062857Y-110827619D01*
X130586666Y-110827619D01*
X131005714Y-111927619D02*
X131005714Y-110827619D01*
X132734285Y-111351428D02*
X132891428Y-111403809D01*
X132943809Y-111456190D01*
X132996190Y-111560952D01*
X132996190Y-111718095D01*
X132943809Y-111822857D01*
X132891428Y-111875238D01*
X132786666Y-111927619D01*
X132367619Y-111927619D01*
X132367619Y-110827619D01*
X132734285Y-110827619D01*
X132839047Y-110880000D01*
X132891428Y-110932380D01*
X132943809Y-111037142D01*
X132943809Y-111141904D01*
X132891428Y-111246666D01*
X132839047Y-111299047D01*
X132734285Y-111351428D01*
X132367619Y-111351428D01*
X133991428Y-111927619D02*
X133467619Y-111927619D01*
X133467619Y-110827619D01*
X134358095Y-111351428D02*
X134724761Y-111351428D01*
X134881904Y-111927619D02*
X134358095Y-111927619D01*
X134358095Y-110827619D01*
X134881904Y-110827619D01*
X136662857Y-111194285D02*
X136662857Y-111927619D01*
X136191428Y-111194285D02*
X136191428Y-111770476D01*
X136243809Y-111875238D01*
X136348571Y-111927619D01*
X136505714Y-111927619D01*
X136610476Y-111875238D01*
X136662857Y-111822857D01*
X137186666Y-111194285D02*
X137186666Y-112294285D01*
X137186666Y-111246666D02*
X137291428Y-111194285D01*
X137500952Y-111194285D01*
X137605714Y-111246666D01*
X137658095Y-111299047D01*
X137710476Y-111403809D01*
X137710476Y-111718095D01*
X137658095Y-111822857D01*
X137605714Y-111875238D01*
X137500952Y-111927619D01*
X137291428Y-111927619D01*
X137186666Y-111875238D01*
X138862857Y-111194285D02*
X139281904Y-111194285D01*
X139020000Y-110827619D02*
X139020000Y-111770476D01*
X139072380Y-111875238D01*
X139177142Y-111927619D01*
X139281904Y-111927619D01*
X139805714Y-111927619D02*
X139700952Y-111875238D01*
X139648571Y-111822857D01*
X139596190Y-111718095D01*
X139596190Y-111403809D01*
X139648571Y-111299047D01*
X139700952Y-111246666D01*
X139805714Y-111194285D01*
X139962857Y-111194285D01*
X140067619Y-111246666D01*
X140120000Y-111299047D01*
X140172380Y-111403809D01*
X140172380Y-111718095D01*
X140120000Y-111822857D01*
X140067619Y-111875238D01*
X139962857Y-111927619D01*
X139805714Y-111927619D01*
X142058095Y-111927619D02*
X141429523Y-111927619D01*
X141743809Y-111927619D02*
X141743809Y-110827619D01*
X141639047Y-110984761D01*
X141534285Y-111089523D01*
X141429523Y-111141904D01*
X143105714Y-110880000D02*
X143000952Y-110827619D01*
X142843809Y-110827619D01*
X142686666Y-110880000D01*
X142581904Y-110984761D01*
X142529523Y-111089523D01*
X142477142Y-111299047D01*
X142477142Y-111456190D01*
X142529523Y-111665714D01*
X142581904Y-111770476D01*
X142686666Y-111875238D01*
X142843809Y-111927619D01*
X142948571Y-111927619D01*
X143105714Y-111875238D01*
X143158095Y-111822857D01*
X143158095Y-111456190D01*
X142948571Y-111456190D01*
X143629523Y-111927619D02*
X143629523Y-110827619D01*
X143629523Y-111246666D02*
X143734285Y-111194285D01*
X143943809Y-111194285D01*
X144048571Y-111246666D01*
X144100952Y-111299047D01*
X144153333Y-111403809D01*
X144153333Y-111718095D01*
X144100952Y-111822857D01*
X144048571Y-111875238D01*
X143943809Y-111927619D01*
X143734285Y-111927619D01*
X143629523Y-111875238D01*
X144624761Y-111927619D02*
X144624761Y-111194285D01*
X144624761Y-110827619D02*
X144572380Y-110880000D01*
X144624761Y-110932380D01*
X144677142Y-110880000D01*
X144624761Y-110827619D01*
X144624761Y-110932380D01*
X144991428Y-111194285D02*
X145410476Y-111194285D01*
X145148571Y-110827619D02*
X145148571Y-111770476D01*
X145200952Y-111875238D01*
X145305714Y-111927619D01*
X145410476Y-111927619D01*
X146981904Y-111351428D02*
X146615238Y-111351428D01*
X146615238Y-111927619D02*
X146615238Y-110827619D01*
X147139047Y-110827619D01*
X147715238Y-111927619D02*
X147610476Y-111875238D01*
X147558095Y-111770476D01*
X147558095Y-110827619D01*
X148605714Y-111927619D02*
X148605714Y-111351428D01*
X148553333Y-111246666D01*
X148448571Y-111194285D01*
X148239047Y-111194285D01*
X148134285Y-111246666D01*
X148605714Y-111875238D02*
X148500952Y-111927619D01*
X148239047Y-111927619D01*
X148134285Y-111875238D01*
X148081904Y-111770476D01*
X148081904Y-111665714D01*
X148134285Y-111560952D01*
X148239047Y-111508571D01*
X148500952Y-111508571D01*
X148605714Y-111456190D01*
X149077142Y-111875238D02*
X149181904Y-111927619D01*
X149391428Y-111927619D01*
X149496190Y-111875238D01*
X149548571Y-111770476D01*
X149548571Y-111718095D01*
X149496190Y-111613333D01*
X149391428Y-111560952D01*
X149234285Y-111560952D01*
X149129523Y-111508571D01*
X149077142Y-111403809D01*
X149077142Y-111351428D01*
X149129523Y-111246666D01*
X149234285Y-111194285D01*
X149391428Y-111194285D01*
X149496190Y-111246666D01*
X150020000Y-111927619D02*
X150020000Y-110827619D01*
X150491428Y-111927619D02*
X150491428Y-111351428D01*
X150439047Y-111246666D01*
X150334285Y-111194285D01*
X150177142Y-111194285D01*
X150072380Y-111246666D01*
X150020000Y-111299047D01*
X152743809Y-111927619D02*
X152691428Y-111927619D01*
X152586666Y-111875238D01*
X152429523Y-111718095D01*
X152167619Y-111403809D01*
X152062857Y-111246666D01*
X152010476Y-111089523D01*
X152010476Y-110984761D01*
X152062857Y-110880000D01*
X152167619Y-110827619D01*
X152220000Y-110827619D01*
X152324761Y-110880000D01*
X152377142Y-110984761D01*
X152377142Y-111037142D01*
X152324761Y-111141904D01*
X152272380Y-111194285D01*
X151958095Y-111403809D01*
X151905714Y-111456190D01*
X151853333Y-111560952D01*
X151853333Y-111718095D01*
X151905714Y-111822857D01*
X151958095Y-111875238D01*
X152062857Y-111927619D01*
X152220000Y-111927619D01*
X152324761Y-111875238D01*
X152377142Y-111822857D01*
X152534285Y-111613333D01*
X152586666Y-111456190D01*
X152586666Y-111351428D01*
X154053333Y-111927619D02*
X154053333Y-110827619D01*
X154472380Y-110827619D01*
X154577142Y-110880000D01*
X154629523Y-110932380D01*
X154681904Y-111037142D01*
X154681904Y-111194285D01*
X154629523Y-111299047D01*
X154577142Y-111351428D01*
X154472380Y-111403809D01*
X154053333Y-111403809D01*
X155100952Y-111875238D02*
X155258095Y-111927619D01*
X155520000Y-111927619D01*
X155624761Y-111875238D01*
X155677142Y-111822857D01*
X155729523Y-111718095D01*
X155729523Y-111613333D01*
X155677142Y-111508571D01*
X155624761Y-111456190D01*
X155520000Y-111403809D01*
X155310476Y-111351428D01*
X155205714Y-111299047D01*
X155153333Y-111246666D01*
X155100952Y-111141904D01*
X155100952Y-111037142D01*
X155153333Y-110932380D01*
X155205714Y-110880000D01*
X155310476Y-110827619D01*
X155572380Y-110827619D01*
X155729523Y-110880000D01*
X156829523Y-111927619D02*
X156462857Y-111403809D01*
X156200952Y-111927619D02*
X156200952Y-110827619D01*
X156620000Y-110827619D01*
X156724761Y-110880000D01*
X156777142Y-110932380D01*
X156829523Y-111037142D01*
X156829523Y-111194285D01*
X156777142Y-111299047D01*
X156724761Y-111351428D01*
X156620000Y-111403809D01*
X156200952Y-111403809D01*
X157248571Y-111613333D02*
X157772380Y-111613333D01*
X157143809Y-111927619D02*
X157510476Y-110827619D01*
X157877142Y-111927619D01*
X158243809Y-111927619D02*
X158243809Y-110827619D01*
X158610476Y-111613333D01*
X158977142Y-110827619D01*
X158977142Y-111927619D01*
D12*
X125816666Y-101780000D02*
X125750000Y-101746666D01*
X125650000Y-101746666D01*
X125550000Y-101780000D01*
X125483333Y-101846666D01*
X125450000Y-101913333D01*
X125416666Y-102046666D01*
X125416666Y-102146666D01*
X125450000Y-102280000D01*
X125483333Y-102346666D01*
X125550000Y-102413333D01*
X125650000Y-102446666D01*
X125716666Y-102446666D01*
X125816666Y-102413333D01*
X125850000Y-102380000D01*
X125850000Y-102146666D01*
X125716666Y-102146666D01*
X126150000Y-102446666D02*
X126150000Y-101746666D01*
X126550000Y-102446666D01*
X126550000Y-101746666D01*
X126883333Y-102446666D02*
X126883333Y-101746666D01*
X127050000Y-101746666D01*
X127150000Y-101780000D01*
X127216666Y-101846666D01*
X127250000Y-101913333D01*
X127283333Y-102046666D01*
X127283333Y-102146666D01*
X127250000Y-102280000D01*
X127216666Y-102346666D01*
X127150000Y-102413333D01*
X127050000Y-102446666D01*
X126883333Y-102446666D01*
%TO.C,*%
D14*
%TO.C,EC20*%
X133000000Y-104399420D02*
X133000000Y-104680580D01*
X131980000Y-104399420D02*
X131980000Y-104680580D01*
%TO.C,EC18*%
X142225000Y-106801252D02*
X142225000Y-106278748D01*
X143695000Y-106801252D02*
X143695000Y-106278748D01*
%TO.C,AUC1*%
X147370000Y-106259420D02*
X147370000Y-106540580D01*
X146350000Y-106259420D02*
X146350000Y-106540580D01*
%TO.C,AR1*%
X161425000Y-90622936D02*
X161425000Y-91077064D01*
X159955000Y-90622936D02*
X159955000Y-91077064D01*
%TO.C,EC25*%
X149828748Y-102745000D02*
X150351252Y-102745000D01*
X149828748Y-101275000D02*
X150351252Y-101275000D01*
%TO.C,LR1*%
X141802742Y-86287500D02*
X142277258Y-86287500D01*
X141802742Y-87332500D02*
X142277258Y-87332500D01*
%TO.C,ECY3*%
X132170000Y-96112500D02*
X136070000Y-96112500D01*
X132170000Y-92912500D02*
X132170000Y-96112500D01*
%TO.C,EC60*%
X132620580Y-92240000D02*
X132339420Y-92240000D01*
X132620580Y-91220000D02*
X132339420Y-91220000D01*
%TO.C,EC61*%
X132720580Y-96840000D02*
X132439420Y-96840000D01*
X132720580Y-97860000D02*
X132439420Y-97860000D01*
%TO.C,J1*%
X123868471Y-93085000D02*
X124011529Y-93085000D01*
X122175000Y-92325000D02*
X122175000Y-91565000D01*
X123612530Y-99370000D02*
X124267470Y-99370000D01*
X125705000Y-91630000D02*
X125705000Y-99370000D01*
X124065000Y-91630000D02*
X124267470Y-91630000D01*
X122175000Y-91565000D02*
X123305000Y-91565000D01*
X124065000Y-91761529D02*
X124065000Y-91630000D01*
X122175000Y-93085000D02*
X122741529Y-93085000D01*
X124882530Y-91630000D02*
X125705000Y-91630000D01*
X122175000Y-93085000D02*
X122175000Y-99370000D01*
X122175000Y-99370000D02*
X122997470Y-99370000D01*
X124065000Y-93031529D02*
X124065000Y-92888471D01*
X124882530Y-99370000D02*
X125705000Y-99370000D01*
%TO.C,ESP32S3*%
X139990432Y-94824308D02*
X140450051Y-94364689D01*
X140909670Y-104115692D02*
X140450051Y-104575311D01*
X145555362Y-99470000D02*
X145095743Y-99010381D01*
X140450051Y-104575311D02*
X139990432Y-104115692D01*
X135804359Y-99010381D02*
X135344740Y-99470000D01*
X140450051Y-94364689D02*
X140909670Y-94824308D01*
X145095743Y-99929619D02*
X145555362Y-99470000D01*
%TO.C,ER1*%
X138742500Y-106979758D02*
X138742500Y-106505242D01*
X137697500Y-106979758D02*
X137697500Y-106505242D01*
%TO.C,ER3*%
X123987258Y-89787500D02*
X123512742Y-89787500D01*
X123987258Y-90832500D02*
X123512742Y-90832500D01*
%TO.C,EC38*%
X127049420Y-104810000D02*
X127330580Y-104810000D01*
X127049420Y-105830000D02*
X127330580Y-105830000D01*
%TO.C,J2*%
X162620000Y-104360000D02*
X161360000Y-104360000D01*
X162620000Y-97140000D02*
X162620000Y-104360000D01*
X159560000Y-104360000D02*
X157920000Y-104360000D01*
X159560000Y-97140000D02*
X157900000Y-97140000D01*
X161360000Y-97140000D02*
X162620000Y-97140000D01*
%TO.C,SHC1*%
X159940000Y-106900580D02*
X159940000Y-106619420D01*
X160960000Y-106900580D02*
X160960000Y-106619420D01*
%TO.C,PSR1*%
X145007500Y-90724758D02*
X145007500Y-90250242D01*
X146052500Y-90724758D02*
X146052500Y-90250242D01*
%TO.C,SH1*%
X159170000Y-108110000D02*
X159170000Y-106810000D01*
X156350000Y-108550000D02*
X156350000Y-106810000D01*
D15*
%TO.C,J20*%
X119795000Y-102160000D02*
X117195000Y-102160000D01*
D14*
%TO.C,EC26*%
X145509420Y-103260000D02*
X145790580Y-103260000D01*
X145509420Y-104280000D02*
X145790580Y-104280000D01*
%TO.C,AC1*%
X153581252Y-87925000D02*
X153058748Y-87925000D01*
X153581252Y-86455000D02*
X153058748Y-86455000D01*
%TO.C,MCPC2*%
X131150000Y-86089420D02*
X131150000Y-86370580D01*
X130130000Y-86089420D02*
X130130000Y-86370580D01*
%TO.C,EC40*%
X135545000Y-104831252D02*
X135545000Y-104308748D01*
X137015000Y-104831252D02*
X137015000Y-104308748D01*
%TO.C,TP2*%
X151360000Y-87530000D02*
G75*
G03*
X151360000Y-87530000I-700000J0D01*
G01*
%TO.C,EC17*%
X144360000Y-106660580D02*
X144360000Y-106379420D01*
X145380000Y-106660580D02*
X145380000Y-106379420D01*
%TO.C,G\u002A\u002A\u002A*%
G36*
X154420711Y-83575428D02*
G01*
X154464482Y-83601400D01*
X154505590Y-83657416D01*
X154513792Y-83722401D01*
X154493335Y-83785030D01*
X154448463Y-83833975D01*
X154383421Y-83857909D01*
X154368050Y-83858698D01*
X154299348Y-83843046D01*
X154261969Y-83816092D01*
X154225457Y-83751516D01*
X154223498Y-83686798D01*
X154249067Y-83629385D01*
X154295142Y-83586721D01*
X154354698Y-83566253D01*
X154420711Y-83575428D01*
G37*
G36*
X154474607Y-83923758D02*
G01*
X154553875Y-83929621D01*
X154609510Y-83939027D01*
X154628399Y-83947598D01*
X154641703Y-83983997D01*
X154650198Y-84060729D01*
X154653710Y-84176048D01*
X154653800Y-84201598D01*
X154653163Y-84302849D01*
X154650446Y-84369054D01*
X154644434Y-84407490D01*
X154633915Y-84425437D01*
X154617676Y-84430171D01*
X154615700Y-84430198D01*
X154580244Y-84435435D01*
X154555476Y-84455231D01*
X154539585Y-84495709D01*
X154530758Y-84562995D01*
X154527183Y-84663214D01*
X154526800Y-84730765D01*
X154526800Y-84980532D01*
X154209300Y-84980532D01*
X154209300Y-84730765D01*
X154207750Y-84610891D01*
X154201895Y-84527153D01*
X154189923Y-84473424D01*
X154170022Y-84443580D01*
X154140379Y-84431496D01*
X154120400Y-84430198D01*
X154103524Y-84426381D01*
X154092490Y-84410076D01*
X154086084Y-84374005D01*
X154083093Y-84310891D01*
X154082304Y-84213456D01*
X154082300Y-84201598D01*
X154084866Y-84079298D01*
X154092447Y-83995261D01*
X154104871Y-83951232D01*
X154107700Y-83947598D01*
X154140590Y-83935743D01*
X154204696Y-83927432D01*
X154289047Y-83922664D01*
X154382674Y-83921439D01*
X154474607Y-83923758D01*
G37*
G36*
X151457701Y-83938770D02*
G01*
X151561272Y-83975449D01*
X151621337Y-84018221D01*
X151658381Y-84053574D01*
X151666187Y-84074769D01*
X151647563Y-84095308D01*
X151638796Y-84102163D01*
X151577435Y-84131180D01*
X151523037Y-84121989D01*
X151499966Y-84102115D01*
X151454383Y-84076232D01*
X151391750Y-84072828D01*
X151331101Y-84092238D01*
X151320808Y-84098943D01*
X151291621Y-84140682D01*
X151274820Y-84216842D01*
X151272348Y-84241818D01*
X151269922Y-84316823D01*
X151280314Y-84367817D01*
X151307197Y-84412122D01*
X151308922Y-84414323D01*
X151368484Y-84460946D01*
X151437509Y-84471536D01*
X151503854Y-84445166D01*
X151520821Y-84430510D01*
X151558976Y-84402220D01*
X151598304Y-84405346D01*
X151616071Y-84412741D01*
X151654980Y-84434879D01*
X151669300Y-84450802D01*
X151652604Y-84479525D01*
X151610685Y-84518459D01*
X151555789Y-84558119D01*
X151500166Y-84589024D01*
X151480933Y-84596651D01*
X151433486Y-84612018D01*
X151401417Y-84616994D01*
X151365788Y-84611510D01*
X151309466Y-84596001D01*
X151214229Y-84549932D01*
X151138785Y-84476137D01*
X151092744Y-84385057D01*
X151085623Y-84352869D01*
X151081837Y-84222206D01*
X151113644Y-84112410D01*
X151161327Y-84041817D01*
X151248160Y-83972445D01*
X151350141Y-83937932D01*
X151457701Y-83938770D01*
G37*
G36*
X158591361Y-84004089D02*
G01*
X158638013Y-83861814D01*
X158689404Y-83747676D01*
X158750878Y-83653842D01*
X158836747Y-83551669D01*
X158936433Y-83451511D01*
X159039360Y-83363721D01*
X159134948Y-83298655D01*
X159163220Y-83283868D01*
X159373368Y-83204259D01*
X159578968Y-83166527D01*
X159780903Y-83170566D01*
X159905795Y-83194292D01*
X160119514Y-83268971D01*
X160306097Y-83375866D01*
X160464165Y-83513600D01*
X160592340Y-83680793D01*
X160689242Y-83876067D01*
X160736872Y-84025369D01*
X160765771Y-84220760D01*
X160756216Y-84421055D01*
X160710052Y-84618190D01*
X160629122Y-84804099D01*
X160522846Y-84961594D01*
X160376016Y-85110004D01*
X160207042Y-85227836D01*
X160022002Y-85313078D01*
X159826972Y-85363717D01*
X159628030Y-85377740D01*
X159431253Y-85353134D01*
X159380485Y-85339955D01*
X159286922Y-85308016D01*
X159188942Y-85267214D01*
X159137117Y-85241812D01*
X159041370Y-85178442D01*
X158936808Y-85089849D01*
X158835090Y-84987679D01*
X158747873Y-84883575D01*
X158689964Y-84795172D01*
X158633225Y-84668036D01*
X158587620Y-84524888D01*
X158557845Y-84383114D01*
X158548466Y-84271448D01*
X158750453Y-84271448D01*
X158762312Y-84446332D01*
X158800687Y-84597161D01*
X158869772Y-84733433D01*
X158973761Y-84864648D01*
X159043041Y-84934052D01*
X159164270Y-85030216D01*
X159301723Y-85109715D01*
X159439433Y-85163776D01*
X159479800Y-85174023D01*
X159570748Y-85183896D01*
X159684528Y-85182653D01*
X159803517Y-85171657D01*
X159910092Y-85152268D01*
X159961728Y-85136808D01*
X160139190Y-85050060D01*
X160288345Y-84935995D01*
X160407979Y-84799509D01*
X160496874Y-84645499D01*
X160553815Y-84478862D01*
X160577588Y-84304494D01*
X160566975Y-84127291D01*
X160520762Y-83952151D01*
X160437733Y-83783969D01*
X160332221Y-83644474D01*
X160195299Y-83522846D01*
X160038427Y-83434382D01*
X159867967Y-83379203D01*
X159690281Y-83357434D01*
X159511730Y-83369197D01*
X159338675Y-83414613D01*
X159177478Y-83493807D01*
X159034500Y-83606900D01*
X159022283Y-83619219D01*
X158900579Y-83763850D01*
X158817148Y-83910984D01*
X158768380Y-84069285D01*
X158750664Y-84247416D01*
X158750453Y-84271448D01*
X158548466Y-84271448D01*
X158559964Y-84146386D01*
X158591361Y-84004089D01*
G37*
G36*
X155942421Y-84010917D02*
G01*
X156000559Y-83840155D01*
X156040849Y-83763183D01*
X156262466Y-83763183D01*
X156280373Y-83783565D01*
X156327366Y-83813561D01*
X156393352Y-83846750D01*
X156394758Y-83847385D01*
X156474875Y-83883522D01*
X156550258Y-83917576D01*
X156597270Y-83938858D01*
X156641090Y-83956585D01*
X156670310Y-83955400D01*
X156700109Y-83930204D01*
X156730678Y-83894053D01*
X156800897Y-83830458D01*
X156876318Y-83792692D01*
X156930268Y-83772253D01*
X156955474Y-83744661D01*
X156964851Y-83695227D01*
X156965160Y-83691635D01*
X156973733Y-83640210D01*
X156993957Y-83618875D01*
X157024466Y-83615282D01*
X157060473Y-83621356D01*
X157077501Y-83647681D01*
X157083820Y-83692432D01*
X157091714Y-83742037D01*
X157112844Y-83769190D01*
X157159699Y-83786944D01*
X157179070Y-83791994D01*
X157245585Y-83813625D01*
X157300422Y-83839503D01*
X157310216Y-83845993D01*
X157334741Y-83867144D01*
X157336734Y-83886727D01*
X157313280Y-83916879D01*
X157286619Y-83944246D01*
X157244169Y-83984658D01*
X157214692Y-83998640D01*
X157181834Y-83990290D01*
X157155379Y-83977138D01*
X157092185Y-83953244D01*
X157032476Y-83943365D01*
X156973689Y-83956927D01*
X156924027Y-83990358D01*
X156898399Y-84032772D01*
X156897466Y-84041937D01*
X156917092Y-84064901D01*
X156974613Y-84100886D01*
X157067999Y-84148845D01*
X157195218Y-84207733D01*
X157347950Y-84273854D01*
X157434015Y-84311018D01*
X157534304Y-84355559D01*
X157612533Y-84391146D01*
X157719326Y-84440108D01*
X157794230Y-84473183D01*
X157843599Y-84492637D01*
X157873787Y-84500732D01*
X157891150Y-84499735D01*
X157900309Y-84493686D01*
X157911103Y-84464680D01*
X157921511Y-84406084D01*
X157929258Y-84330824D01*
X157922577Y-84139666D01*
X157876693Y-83957711D01*
X157794509Y-83789819D01*
X157678931Y-83640850D01*
X157532866Y-83515666D01*
X157393613Y-83434759D01*
X157225689Y-83377004D01*
X157045077Y-83354442D01*
X156861943Y-83366629D01*
X156686451Y-83413123D01*
X156564878Y-83470874D01*
X156505347Y-83511633D01*
X156438377Y-83566384D01*
X156372288Y-83627084D01*
X156315404Y-83685688D01*
X156276046Y-83734152D01*
X156262466Y-83763183D01*
X156040849Y-83763183D01*
X156076140Y-83695763D01*
X156178017Y-83562655D01*
X156249370Y-83487899D01*
X156417520Y-83348986D01*
X156600246Y-83247682D01*
X156793793Y-83185076D01*
X156994406Y-83162261D01*
X157198331Y-83180324D01*
X157260882Y-83194204D01*
X157473816Y-83268290D01*
X157660128Y-83374922D01*
X157818214Y-83512496D01*
X157946470Y-83679408D01*
X158043293Y-83874053D01*
X158091127Y-84024449D01*
X158121110Y-84225893D01*
X158109411Y-84430559D01*
X158055921Y-84639355D01*
X158002852Y-84768865D01*
X157948507Y-84858644D01*
X157867644Y-84959348D01*
X157770392Y-85060713D01*
X157666882Y-85152471D01*
X157567243Y-85224357D01*
X157535007Y-85243003D01*
X157346239Y-85322360D01*
X157148006Y-85366763D01*
X156949103Y-85375146D01*
X156758324Y-85346444D01*
X156734652Y-85339955D01*
X156557847Y-85274040D01*
X156401823Y-85182057D01*
X156253881Y-85056387D01*
X156241347Y-85043984D01*
X156118355Y-84904362D01*
X156027943Y-84760029D01*
X155961536Y-84596359D01*
X155943589Y-84536197D01*
X155908515Y-84352145D01*
X155909234Y-84261716D01*
X156104606Y-84261716D01*
X156104646Y-84282032D01*
X156118231Y-84456439D01*
X156159721Y-84608249D01*
X156233140Y-84746432D01*
X156342513Y-84879958D01*
X156397207Y-84934052D01*
X156544065Y-85047895D01*
X156707178Y-85131225D01*
X156837698Y-85170826D01*
X156946798Y-85182452D01*
X157075958Y-85179173D01*
X157206169Y-85162386D01*
X157310919Y-85136086D01*
X157459541Y-85070355D01*
X157590851Y-84982568D01*
X157609395Y-84966796D01*
X157654137Y-84922723D01*
X157704640Y-84866374D01*
X157752547Y-84808012D01*
X157789503Y-84757899D01*
X157807151Y-84726298D01*
X157807633Y-84723325D01*
X157789606Y-84706042D01*
X157741539Y-84677579D01*
X157672455Y-84643075D01*
X157643591Y-84629904D01*
X157563404Y-84593668D01*
X157494962Y-84561791D01*
X157450037Y-84539784D01*
X157442989Y-84535979D01*
X157413510Y-84528830D01*
X157388478Y-84552242D01*
X157374219Y-84577392D01*
X157321028Y-84647374D01*
X157244800Y-84709977D01*
X157163608Y-84751001D01*
X157147447Y-84755586D01*
X157108177Y-84772169D01*
X157089721Y-84806498D01*
X157083947Y-84848324D01*
X157075681Y-84900968D01*
X157056741Y-84923361D01*
X157024466Y-84927615D01*
X156988733Y-84921695D01*
X156971679Y-84895880D01*
X156965023Y-84848967D01*
X156956567Y-84796172D01*
X156933902Y-84770439D01*
X156883335Y-84756764D01*
X156880357Y-84756223D01*
X156774255Y-84726498D01*
X156691442Y-84676779D01*
X156679990Y-84667145D01*
X156659043Y-84644668D01*
X156660027Y-84622812D01*
X156686372Y-84589384D01*
X156708359Y-84566345D01*
X156774288Y-84498323D01*
X156862335Y-84548672D01*
X156948590Y-84588318D01*
X157021748Y-84596855D01*
X157095668Y-84575816D01*
X157098061Y-84574736D01*
X157144382Y-84537421D01*
X157167265Y-84486805D01*
X157161805Y-84437788D01*
X157148919Y-84420340D01*
X157117231Y-84400002D01*
X157057059Y-84368719D01*
X156978986Y-84331853D01*
X156939800Y-84314420D01*
X156846307Y-84273445D01*
X156755053Y-84233125D01*
X156681799Y-84200433D01*
X156664633Y-84192675D01*
X156585875Y-84157329D01*
X156505562Y-84121917D01*
X156484716Y-84112867D01*
X156411560Y-84080779D01*
X156328675Y-84043714D01*
X156300669Y-84031012D01*
X156237202Y-84004819D01*
X156185961Y-83988454D01*
X156168781Y-83985698D01*
X156140020Y-84001660D01*
X156120109Y-84051264D01*
X156108491Y-84137090D01*
X156104606Y-84261716D01*
X155909234Y-84261716D01*
X155909919Y-84175480D01*
X155942421Y-84010917D01*
G37*
G36*
X152192233Y-83966773D02*
G01*
X152266503Y-84022278D01*
X152297869Y-84058395D01*
X152301220Y-84079434D01*
X152277933Y-84100786D01*
X152273796Y-84103821D01*
X152211333Y-84131517D01*
X152156721Y-84121161D01*
X152134966Y-84102115D01*
X152087994Y-84074930D01*
X152026899Y-84074720D01*
X151969129Y-84100255D01*
X151953038Y-84114920D01*
X151923612Y-84173349D01*
X151911320Y-84253030D01*
X151916165Y-84336505D01*
X151938145Y-84406314D01*
X151953038Y-84427976D01*
X152010264Y-84463825D01*
X152079729Y-84471217D01*
X152143803Y-84449855D01*
X152165468Y-84431578D01*
X152201333Y-84403794D01*
X152241585Y-84408746D01*
X152253415Y-84413809D01*
X152294806Y-84445987D01*
X152296974Y-84484199D01*
X152262022Y-84525301D01*
X152192053Y-84566153D01*
X152136546Y-84588391D01*
X152076792Y-84609072D01*
X152038431Y-84616987D01*
X152002509Y-84612194D01*
X151950077Y-84594753D01*
X151933883Y-84589027D01*
X151834102Y-84534001D01*
X151765514Y-84451282D01*
X151729163Y-84342898D01*
X151726093Y-84210872D01*
X151728409Y-84190385D01*
X151759661Y-84096417D01*
X151821152Y-84021437D01*
X151904019Y-83968213D01*
X151999397Y-83939515D01*
X152098423Y-83938112D01*
X152192233Y-83966773D01*
G37*
G36*
X159813888Y-83719887D02*
G01*
X159944122Y-83767796D01*
X160050733Y-83849451D01*
X160136743Y-83966620D01*
X160151367Y-83993747D01*
X160180615Y-84058005D01*
X160197813Y-84119808D01*
X160206041Y-84194755D01*
X160208294Y-84282032D01*
X160207325Y-84375822D01*
X160200710Y-84442522D01*
X160185281Y-84497303D01*
X160157868Y-84555336D01*
X160147021Y-84575307D01*
X160099142Y-84649460D01*
X160043670Y-84717608D01*
X160010863Y-84749342D01*
X159891272Y-84822768D01*
X159755785Y-84864003D01*
X159615216Y-84871649D01*
X159480379Y-84844307D01*
X159432336Y-84824180D01*
X159333755Y-84760633D01*
X159254646Y-84679971D01*
X159202354Y-84591508D01*
X159184216Y-84509573D01*
X159186175Y-84476254D01*
X159200059Y-84458927D01*
X159236216Y-84452371D01*
X159299599Y-84451365D01*
X159366972Y-84452940D01*
X159405341Y-84462070D01*
X159428025Y-84485362D01*
X159446098Y-84524042D01*
X159498556Y-84597642D01*
X159579307Y-84645737D01*
X159679448Y-84663031D01*
X159679832Y-84663032D01*
X159735925Y-84654983D01*
X159787860Y-84625584D01*
X159836326Y-84581672D01*
X159894263Y-84511444D01*
X159928443Y-84434617D01*
X159943567Y-84337823D01*
X159945466Y-84271448D01*
X159938218Y-84154327D01*
X159914284Y-84066337D01*
X159870378Y-83996457D01*
X159860094Y-83984942D01*
X159819141Y-83947367D01*
X159776462Y-83928618D01*
X159714852Y-83922501D01*
X159685828Y-83922198D01*
X159597002Y-83929066D01*
X159534585Y-83952023D01*
X159515655Y-83965084D01*
X159467294Y-84015415D01*
X159444430Y-84065373D01*
X159450762Y-84104703D01*
X159461659Y-84114770D01*
X159470561Y-84132318D01*
X159454240Y-84163417D01*
X159409248Y-84213935D01*
X159394594Y-84228805D01*
X159298805Y-84324886D01*
X159194306Y-84218792D01*
X159141344Y-84162724D01*
X159117015Y-84129796D01*
X159118345Y-84114987D01*
X159131483Y-84112698D01*
X159164344Y-84099041D01*
X159190735Y-84053236D01*
X159200789Y-84024168D01*
X159251999Y-83907173D01*
X159327705Y-83817912D01*
X159409687Y-83760002D01*
X159472262Y-83728051D01*
X159533005Y-83710859D01*
X159609632Y-83704410D01*
X159657012Y-83703951D01*
X159813888Y-83719887D01*
G37*
G36*
X150659248Y-83911546D02*
G01*
X150749386Y-83725976D01*
X150876122Y-83553221D01*
X150937554Y-83487899D01*
X151106619Y-83347638D01*
X151290068Y-83246407D01*
X151484657Y-83184750D01*
X151687140Y-83163209D01*
X151894274Y-83182325D01*
X152102814Y-83242643D01*
X152187089Y-83278991D01*
X152334300Y-83367127D01*
X152473456Y-83484523D01*
X152593481Y-83620245D01*
X152683299Y-83763358D01*
X152688483Y-83774032D01*
X152767061Y-83983914D01*
X152804353Y-84193297D01*
X152800866Y-84399049D01*
X152757107Y-84598039D01*
X152673580Y-84787135D01*
X152550793Y-84963206D01*
X152484598Y-85035603D01*
X152340506Y-85161950D01*
X152185765Y-85256568D01*
X152008454Y-85326153D01*
X151926882Y-85348896D01*
X151759245Y-85376415D01*
X151591999Y-85371695D01*
X151433783Y-85340728D01*
X151239253Y-85268688D01*
X151061925Y-85160876D01*
X150906241Y-85021885D01*
X150776641Y-84856306D01*
X150677563Y-84668732D01*
X150622085Y-84501226D01*
X150594230Y-84303563D01*
X150596313Y-84271448D01*
X150793314Y-84271448D01*
X150794536Y-84373632D01*
X150799990Y-84447817D01*
X150812363Y-84508307D01*
X150834340Y-84569407D01*
X150860087Y-84627147D01*
X150953273Y-84783511D01*
X151076733Y-84923125D01*
X151222372Y-85039369D01*
X151382092Y-85125619D01*
X151524864Y-85170826D01*
X151629191Y-85182019D01*
X151753384Y-85179502D01*
X151877760Y-85164658D01*
X151982635Y-85138873D01*
X151983476Y-85138579D01*
X152163357Y-85056005D01*
X152319911Y-84944272D01*
X152447027Y-84808244D01*
X152501503Y-84726010D01*
X152575094Y-84557515D01*
X152611604Y-84377195D01*
X152611875Y-84192037D01*
X152576749Y-84009031D01*
X152507068Y-83835164D01*
X152403674Y-83677425D01*
X152370538Y-83639001D01*
X152295247Y-83571428D01*
X152195181Y-83501657D01*
X152086095Y-83439716D01*
X151993421Y-83399018D01*
X151892363Y-83374963D01*
X151766955Y-83363016D01*
X151633407Y-83363163D01*
X151507930Y-83375392D01*
X151407293Y-83399488D01*
X151230992Y-83485019D01*
X151077536Y-83605412D01*
X150949168Y-83758544D01*
X150859238Y-83917623D01*
X150828199Y-83988525D01*
X150808746Y-84048066D01*
X150798224Y-84110496D01*
X150793978Y-84190067D01*
X150793314Y-84271448D01*
X150596313Y-84271448D01*
X150607073Y-84105539D01*
X150659248Y-83911546D01*
G37*
G36*
X153290526Y-84033569D02*
G01*
X153296587Y-84010917D01*
X153354725Y-83840155D01*
X153430307Y-83695763D01*
X153532184Y-83562655D01*
X153603537Y-83487899D01*
X153771687Y-83348986D01*
X153954413Y-83247682D01*
X154147960Y-83185076D01*
X154348573Y-83162261D01*
X154552498Y-83180324D01*
X154615048Y-83194204D01*
X154827982Y-83268290D01*
X155014294Y-83374922D01*
X155172381Y-83512496D01*
X155300637Y-83679408D01*
X155397460Y-83874053D01*
X155445294Y-84024449D01*
X155475277Y-84225893D01*
X155463577Y-84430559D01*
X155410088Y-84639355D01*
X155357019Y-84768865D01*
X155302674Y-84858644D01*
X155221810Y-84959348D01*
X155124559Y-85060713D01*
X155021049Y-85152471D01*
X154921410Y-85224357D01*
X154889174Y-85243003D01*
X154700406Y-85322360D01*
X154502173Y-85366763D01*
X154303270Y-85375146D01*
X154112491Y-85346444D01*
X154088819Y-85339955D01*
X153912014Y-85274040D01*
X153755990Y-85182057D01*
X153608048Y-85056387D01*
X153595514Y-85043984D01*
X153469998Y-84900792D01*
X153378340Y-84752377D01*
X153312840Y-84585445D01*
X153296677Y-84527989D01*
X153264078Y-84355634D01*
X153262995Y-84271448D01*
X153458490Y-84271448D01*
X153470876Y-84447065D01*
X153509649Y-84598285D01*
X153579053Y-84734716D01*
X153683337Y-84865964D01*
X153751374Y-84934052D01*
X153872726Y-85030300D01*
X154010338Y-85109854D01*
X154148219Y-85163928D01*
X154188133Y-85174061D01*
X154270845Y-85183256D01*
X154376371Y-85183164D01*
X154488361Y-85174964D01*
X154590466Y-85159836D01*
X154664560Y-85139674D01*
X154848387Y-85046935D01*
X155003255Y-84927638D01*
X155126741Y-84785438D01*
X155216424Y-84623990D01*
X155269881Y-84446949D01*
X155284691Y-84257970D01*
X155281963Y-84207948D01*
X155245939Y-84009740D01*
X155173233Y-83830537D01*
X155066387Y-83673665D01*
X154927942Y-83542448D01*
X154760441Y-83440211D01*
X154664383Y-83400206D01*
X154556054Y-83374091D01*
X154425763Y-83361681D01*
X154289462Y-83362918D01*
X154163103Y-83377743D01*
X154071716Y-83402399D01*
X153885775Y-83495545D01*
X153729513Y-83618872D01*
X153603169Y-83772142D01*
X153506982Y-83955114D01*
X153499001Y-83975115D01*
X153474640Y-84057243D01*
X153461773Y-84154533D01*
X153458490Y-84271448D01*
X153262995Y-84271448D01*
X153262028Y-84196266D01*
X153290526Y-84033569D01*
G37*
%TO.C,AL1*%
X157817936Y-88760000D02*
X159022064Y-88760000D01*
X157817936Y-86040000D02*
X159022064Y-86040000D01*
%TO.C,EPS1*%
X150190000Y-94290000D02*
X148240000Y-94290000D01*
X150190000Y-89170000D02*
X146740000Y-89170000D01*
X150190000Y-89170000D02*
X152140000Y-89170000D01*
X150190000Y-94290000D02*
X152140000Y-94290000D01*
%TO.C,ICR1*%
X133762742Y-86367500D02*
X134237258Y-86367500D01*
X133762742Y-87412500D02*
X134237258Y-87412500D01*
D15*
%TO.C,ANT1*%
X119790000Y-106830000D02*
X127790000Y-106830000D01*
X127790000Y-108930000D02*
X119790000Y-108930000D01*
D16*
X117630500Y-107880000D02*
G75*
G03*
X117630500Y-107880000I-190500J0D01*
G01*
D14*
%TO.C,EC16*%
X139609420Y-93060000D02*
X139890580Y-93060000D01*
X139609420Y-94080000D02*
X139890580Y-94080000D01*
%TO.C,IMUC1*%
X132319420Y-89360000D02*
X132600580Y-89360000D01*
X132319420Y-90380000D02*
X132600580Y-90380000D01*
%TO.C,U1*%
X126220000Y-87660000D02*
X126220000Y-88310000D01*
X126220000Y-87660000D02*
X126220000Y-87010000D01*
X129340000Y-87660000D02*
X129340000Y-85985000D01*
X129340000Y-87660000D02*
X129340000Y-88310000D01*
%TO.C,Q5*%
X122360000Y-87280000D02*
X122360000Y-88955000D01*
X125480000Y-87280000D02*
X125480000Y-86630000D01*
X125480000Y-87280000D02*
X125480000Y-87930000D01*
X122360000Y-87280000D02*
X122360000Y-86630000D01*
%TO.C,EC51*%
X144230000Y-90840580D02*
X144230000Y-90559420D01*
X143210000Y-90840580D02*
X143210000Y-90559420D01*
%TO.C,EC15*%
X132559420Y-100560000D02*
X132840580Y-100560000D01*
X132559420Y-101580000D02*
X132840580Y-101580000D01*
%TO.C,TP3*%
X125150000Y-102705000D02*
G75*
G03*
X125150000Y-102705000I-700000J0D01*
G01*
%TO.C,IDR1*%
X138042742Y-86377500D02*
X138517258Y-86377500D01*
X138042742Y-87422500D02*
X138517258Y-87422500D01*
%TO.C,QR1*%
X123212742Y-83837500D02*
X123687258Y-83837500D01*
X123212742Y-84882500D02*
X123687258Y-84882500D01*
%TO.C,L2*%
X133920000Y-105009622D02*
X133920000Y-104210378D01*
X135040000Y-105009622D02*
X135040000Y-104210378D01*
%TO.C,AC2*%
X158211252Y-96205000D02*
X157688748Y-96205000D01*
X158211252Y-94735000D02*
X157688748Y-94735000D01*
%TO.C,LED1*%
X144325000Y-88235000D02*
X148410000Y-88235000D01*
X144325000Y-86065000D02*
X144325000Y-88235000D01*
X148410000Y-86065000D02*
X144325000Y-86065000D01*
D17*
X148596496Y-85543504D02*
G75*
G03*
X148596496Y-85543504I-161496J0D01*
G01*
D14*
%TO.C,EC19*%
X133570580Y-106750000D02*
X133289420Y-106750000D01*
X133570580Y-107770000D02*
X133289420Y-107770000D01*
%TO.C,EC14*%
X132568748Y-98485000D02*
X133091252Y-98485000D01*
X132568748Y-99955000D02*
X133091252Y-99955000D01*
%TO.C,AU1*%
X158975000Y-93485000D02*
X155975000Y-93485000D01*
X155975000Y-93485000D02*
X155975000Y-90485000D01*
X155975000Y-90485000D02*
X158975000Y-90485000D01*
X158975000Y-90485000D02*
X158975000Y-93485000D01*
D13*
X159445011Y-90135000D02*
G75*
G03*
X159445011Y-90135000I-200006J0D01*
G01*
D14*
%TO.C,I2C2*%
X120925000Y-101660000D02*
X120925000Y-100610000D01*
X118425000Y-101660000D02*
X120925000Y-101660000D01*
X120925000Y-96490000D02*
X121915000Y-96490000D01*
X120925000Y-95440000D02*
X120925000Y-96490000D01*
X116455000Y-96610000D02*
X116455000Y-100490000D01*
X118425000Y-95440000D02*
X120925000Y-95440000D01*
%TO.C,EXP_R3*%
X127667258Y-98202500D02*
X127192742Y-98202500D01*
X127667258Y-97157500D02*
X127192742Y-97157500D01*
%TO.C,EC50*%
X138110000Y-90940580D02*
X138110000Y-90659420D01*
X139130000Y-90940580D02*
X139130000Y-90659420D01*
D13*
%TO.C,ESP_FLASH1*%
X146290000Y-95160000D02*
X146290000Y-94660000D01*
X146290000Y-100660000D02*
X154290000Y-100660000D01*
X154290000Y-94660000D02*
X154290000Y-95160000D01*
X146290000Y-94660000D02*
X154290000Y-94660000D01*
X154290000Y-100660000D02*
X154290000Y-100160000D01*
X146290000Y-100160000D02*
X146290000Y-100660000D01*
X145890000Y-94910000D02*
G75*
G03*
X145890000Y-94910000I-100000J0D01*
G01*
D14*
%TO.C,EXP_R4*%
X127557258Y-99657500D02*
X127082742Y-99657500D01*
X127557258Y-100702500D02*
X127082742Y-100702500D01*
%TO.C,EC37*%
X121810000Y-103100580D02*
X121810000Y-102819420D01*
X122830000Y-103100580D02*
X122830000Y-102819420D01*
%TO.C,MCPC1*%
X127960580Y-84170000D02*
X127679420Y-84170000D01*
X127960580Y-85190000D02*
X127679420Y-85190000D01*
%TO.C,EL4*%
X122750378Y-105990000D02*
X123549622Y-105990000D01*
X122750378Y-104870000D02*
X123549622Y-104870000D01*
%TO.C,AR2*%
X161485000Y-94232936D02*
X161485000Y-94687064D01*
X160015000Y-94232936D02*
X160015000Y-94687064D01*
%TO.C,J3*%
X116395000Y-91400000D02*
X116395000Y-93280000D01*
X120865000Y-94450000D02*
X120865000Y-93400000D01*
X118365000Y-94450000D02*
X120865000Y-94450000D01*
X118365000Y-90230000D02*
X120865000Y-90230000D01*
X120865000Y-90230000D02*
X120865000Y-91280000D01*
X120865000Y-91280000D02*
X121855000Y-91280000D01*
%TO.C,EXP_R2*%
X127727258Y-95347500D02*
X127252742Y-95347500D01*
X127727258Y-96392500D02*
X127252742Y-96392500D01*
%TO.C,EXP_R1*%
X127747258Y-93527500D02*
X127272742Y-93527500D01*
X127747258Y-94572500D02*
X127272742Y-94572500D01*
D15*
%TO.C,U2*%
X153395000Y-103160000D02*
X149405000Y-103160000D01*
X153395000Y-108200000D02*
X149405000Y-108200000D01*
D13*
X155950000Y-108175000D02*
G75*
G03*
X155950000Y-108175000I-100000J0D01*
G01*
D15*
%TO.C,IMU1*%
X137310000Y-91730000D02*
X137310000Y-92380000D01*
X134860000Y-92380000D02*
X134710000Y-92380000D01*
X134860000Y-89280000D02*
X134710000Y-89280000D01*
X134710000Y-92380000D02*
X134710000Y-91730000D01*
X134710000Y-89280000D02*
X134710000Y-89930000D01*
X137310000Y-89930000D02*
X137310000Y-89280000D01*
X137310000Y-92380000D02*
X137160000Y-92380000D01*
X137310000Y-89280000D02*
X137160000Y-89280000D01*
D13*
X136860000Y-88880000D02*
G75*
G03*
X136860000Y-88880000I-100000J0D01*
G01*
D14*
%TO.C,ER2*%
X127282742Y-92422500D02*
X127757258Y-92422500D01*
X127282742Y-91377500D02*
X127757258Y-91377500D01*
%TO.C,EC24*%
X153540580Y-101470000D02*
X153259420Y-101470000D01*
X153540580Y-102490000D02*
X153259420Y-102490000D01*
%TO.C,ECY2*%
X142760000Y-92850000D02*
X142760000Y-88950000D01*
X139560000Y-92850000D02*
X142760000Y-92850000D01*
%TO.C,TP1*%
X149000000Y-83700000D02*
G75*
G03*
X149000000Y-83700000I-700000J0D01*
G01*
%TD*%
M02*
